<svg xmlns="http://www.w3.org/2000/svg" viewBox="0 0 3511.6 534.21"><defs><style>.cls-1{fill:#fff;}</style></defs><title>Ativo 2</title><g id="Camada_2" data-name="Camada 2"><g id="Camada_1-2" data-name="Camada 1"><rect class="cls-1" x="-10.39" y="234.68" width="223.82" height="60.43" rx="2.85" transform="translate(-157.58 149.38) rotate(-45)"/><rect class="cls-1" x="112.02" y="264.12" width="146.8" height="60.43" rx="2.85" transform="translate(-153.82 217.32) rotate(-45)"/><rect class="cls-1" x="70.55" y="349.95" width="58.08" height="60.43" rx="2.85" transform="translate(-239.65 181.77) rotate(-45)"/><rect class="cls-1" x="242.21" y="178.29" width="58.08" height="60.43" rx="2.85" transform="translate(-67.99 252.87) rotate(-45)"/><rect class="cls-1" x="168.68" y="320.79" width="146.8" height="60.43" rx="2.85" transform="translate(-177.29 273.99) rotate(-45)"/><rect class="cls-1" x="127.22" y="406.62" width="58.08" height="60.43" rx="2.85" transform="translate(-263.12 238.43) rotate(-45)"/><rect class="cls-1" x="298.88" y="234.96" width="58.08" height="60.43" rx="2.85" transform="translate(-91.46 309.54) rotate(-45)"/><rect class="cls-1" x="214.07" y="350.22" width="223.82" height="60.43" rx="2.85" transform="translate(-173.53 341.93) rotate(-45)"/><rect class="cls-1" x="183.88" y="463.28" width="58.08" height="60.43" rx="2.85" transform="translate(-286.59 295.1) rotate(-45)"/><rect class="cls-1" x="185.55" y="121.62" width="58.08" height="60.43" rx="2.85" transform="translate(-44.52 196.21) rotate(-45)"/><rect class="cls-1" x="-12.6" y="123.56" width="223.82" height="60.43" rx="2.85" transform="translate(-79.65 115.27) rotate(-45)"/><rect class="cls-1" x="109.81" y="153" width="146.8" height="60.43" rx="2.85" transform="translate(-75.89 183.21) rotate(-45)"/><rect class="cls-1" x="68.34" y="238.83" width="58.08" height="60.43" rx="2.85" transform="translate(-161.72 147.66) rotate(-45)"/><rect class="cls-1" x="240" y="67.17" width="58.08" height="60.43" rx="2.85" transform="translate(9.94 218.76) rotate(-45)"/><rect class="cls-1" x="166.48" y="209.66" width="146.8" height="60.43" rx="2.85" transform="translate(-99.36 239.88) rotate(-45)"/><rect class="cls-1" x="125.01" y="295.49" width="58.08" height="60.43" rx="2.85" transform="translate(-185.19 204.33) rotate(-45)"/><rect class="cls-1" x="296.67" y="123.83" width="58.08" height="60.43" rx="2.85" transform="translate(-13.53 275.43) rotate(-45)"/><rect class="cls-1" x="211.86" y="239.1" width="223.82" height="60.43" rx="2.85" transform="translate(-95.6 307.82) rotate(-45)"/><rect class="cls-1" x="181.68" y="352.16" width="58.08" height="60.43" rx="2.85" transform="translate(-208.66 260.99) rotate(-45)"/><rect class="cls-1" x="183.34" y="10.5" width="58.08" height="60.43" rx="2.85" transform="translate(33.41 162.1) rotate(-45)"/><path class="cls-1" d="M681.6,163l-27.13-4.7V135.91h54.62q7.59,0,23.5-.73,21-1.44,38-1.44,37.6,0,59.49,9.22t31.11,26.4q9.23,17.17,9.22,43.58,0,45.57-28.39,70.89t-78.66,25.31q-19.9,0-28.58-1.08v71.25l48.47,3.61v21.7H653v-21.7l28.57-3.61Zm81,123.69q24.23,0,38.88-16.82T816.14,214q0-30.39-13.2-44.31T762.61,155.8a159.35,159.35,0,0,0-21,1.44,57.64,57.64,0,0,1-7.24.73V284.91Q742.73,286.73,762.61,286.72Z"/><path class="cls-1" d="M914.87,140.25l-26.76-4.71V116l66.91-8h.72l9.77,6.87V380l26.4,2.89v21.7H889.56v-21.7l25.31-3.25Z"/><path class="cls-1" d="M1046,298.66q33.09-16.64,85.53-17v-8.32q0-14.82-3.07-23.15a22.3,22.3,0,0,0-11.22-12.47q-8.13-4.16-23.68-4.16a103.86,103.86,0,0,0-31.83,4.52,237.47,237.47,0,0,0-29.3,11.75l-11.21-23.15q5.43-4.69,18.27-11.21A164.38,164.38,0,0,1,1070,204.08a137.07,137.07,0,0,1,36.53-4.88q27.84,0,43.58,7.23a43.79,43.79,0,0,1,22.6,23.15q6.87,15.91,6.87,42.67V382.92h19.53v20.26a199.85,199.85,0,0,1-20.61,3.61A177.63,177.63,0,0,1,1155,408.6q-12.3,0-16.46-3.61t-4.16-14.83v-9.77q-9.76,10.86-25.31,19.53T1074,408.6a66.68,66.68,0,0,1-30.57-7.05,54.66,54.66,0,0,1-22.24-20.61q-8.33-13.57-8.32-32.74Q1012.88,315.3,1046,298.66Zm68.53,75.4a67.76,67.76,0,0,0,17-11V303.72q-32.55,0-48.64,11t-16.1,28.39q0,17.36,8.14,26.4t22.24,9Q1104.76,378.58,1114.51,374.06Z"/><path class="cls-1" d="M1241.82,237.9l-23.15-6.51v-25l60-7.59h1.08l9,7.23v14.1l-.36,8.68q12.66-11.92,32.91-20.61a102.89,102.89,0,0,1,40.87-8.68q22.07,0,34.54,8.14t17.9,25.49q5.43,17.37,5.43,47V380l22.06,2.89v21.7h-93.31v-21.7L1368.4,380V280.21q0-18.79-2.53-29.47t-9.22-15.56q-6.7-4.87-19-4.88-20.61,0-44.12,17.72V379.67l21.69,3.25v21.7h-94.39v-21.7l21-3.25Z"/><path class="cls-1" d="M1491.73,237.9,1466.05,231V206.79l66.18-7.95h.73l10.12,7.23V380l24.24,2.89v21.7H1466.41v-21.7l25.32-3.25ZM1490.28,163q-7.59-7.59-7.59-19.53,0-13.74,8.68-22.78t23.14-9q14.46,0,22.06,7.78a26.59,26.59,0,0,1,7.6,19.35q0,14.47-8.68,23.15t-24.23,8.68h-.36Q1497.88,170.63,1490.28,163Z"/><path class="cls-1" d="M1614.33,140.25l-26.77-4.71V116l66.91-8h.73l9.76,6.87V380l26.4,2.89v21.7H1589v-21.7l25.32-3.25Z"/><path class="cls-1" d="M1733.31,140.25l-27.48-4.71V116l67.27-8h1.08l9.41,6.87.36,80.65-2.53,31.47q11.2-10.12,30.56-18.81a98.17,98.17,0,0,1,40.68-8.68q22.78,0,35.45,8.5t17.72,25.86q5.06,17.36,5.06,46.29v99.46l23.15,3.25v21.7h-95.12v-21.7l21-3.25V280.21q0-18.79-2.53-29.29t-9.23-15.56q-6.69-5.06-19.71-5.06a56.05,56.05,0,0,0-23,5.25,95,95,0,0,0-20.8,12.47V379.67l22.06,3.25v21.7h-93.67v-21.7l20.25-2.89Z"/><path class="cls-1" d="M1987.75,298.66q33.09-16.64,85.53-17v-8.32q0-14.82-3.07-23.15A22.34,22.34,0,0,0,2059,237.72q-8.13-4.16-23.69-4.16a103.84,103.84,0,0,0-31.82,4.52,237.47,237.47,0,0,0-29.3,11.75L1963,226.68q5.43-4.69,18.27-11.21a164.38,164.38,0,0,1,30.56-11.39,137.07,137.07,0,0,1,36.53-4.88q27.84,0,43.58,7.23a43.79,43.79,0,0,1,22.6,23.15q6.87,15.91,6.87,42.67V382.92h19.53v20.26a199.85,199.85,0,0,1-20.61,3.61,177.63,177.63,0,0,1-23.51,1.81q-12.3,0-16.46-3.61t-4.16-14.83v-9.77q-9.77,10.86-25.31,19.53t-35.09,8.68a66.67,66.67,0,0,1-30.56-7.05A54.6,54.6,0,0,1,1963,380.94q-8.33-13.57-8.32-32.74Q1954.65,315.3,1987.75,298.66Zm68.53,75.4a67.76,67.76,0,0,0,17-11V303.72q-32.55,0-48.64,11t-16.1,28.39q0,17.36,8.14,26.4t22.24,9Q2046.51,378.58,2056.28,374.06Z"/><path class="cls-1" d="M2170.75,251.82a90.87,90.87,0,0,1,34-38.88q22.61-14.46,55.16-14.47a110.07,110.07,0,0,1,27.48,3.44,182.14,182.14,0,0,1,23.15,7.41L2309.08,261H2291l-7.59-34.72q-2.17-10.84-31.11-10.85-28.2,0-45,21.7t-16.82,59.32q0,44.85,18.08,68t47,23.15a87.47,87.47,0,0,0,29.47-5.07A100.56,100.56,0,0,0,2308.72,371l5.79,11.93q-10.5,10.5-28.93,18.09a95.49,95.49,0,0,1-36.53,7.59q-28.58,0-48.83-13.56a84.34,84.34,0,0,1-30.56-36.89q-10.3-23.32-10.31-52.62T2170.75,251.82Z"/><path class="cls-1" d="M2370.74,379.85q-22.6-28.75-22.6-76.49,0-30.74,11.94-54.61t33.09-37.07q21.15-13.2,47.56-13.21,32.17,0,50.09,18.45t19.35,53.16q0,22.44-2.17,31.83H2379.24q0,38,17.18,62T2444.71,388a96,96,0,0,0,31.1-5.43q15.92-5.42,24.59-13l5.79,13.38q-10.5,10.86-30.56,18.27a115.73,115.73,0,0,1-40.33,7.41Q2393.34,408.6,2370.74,379.85Zm106.88-94.94A112.88,112.88,0,0,0,2478.7,269q-.36-23.87-11.39-38t-33.82-14.1q-49.54,0-53.89,68Z"/><path class="cls-1" d="M2572.37,376.05q4,6.17,16.64,10.85a77.11,77.11,0,0,0,27.12,4.71q44.13,0,44.13-32.56,0-14.82-12.3-24.05T2606,314.57q-29.3-10.49-42.68-25T2550,250.92a41.24,41.24,0,0,1,9.58-27.13q9.58-11.56,25.68-17.9a94.46,94.46,0,0,1,34.9-6.33q18.45,0,30.92,3.25a237.68,237.68,0,0,1,24.78,8v43h-17.72l-6.51-26.4q-2.53-4.69-12.84-8a74.82,74.82,0,0,0-22.61-3.25q-17.36,0-28.21,7.77t-10.85,20.8q0,11.58,5.43,19.17a41.3,41.3,0,0,0,13.38,12.11,197.9,197.9,0,0,0,22.06,10.31l6.87,2.89q20.61,8,33.28,15a64.5,64.5,0,0,1,21,18.45q8.33,11.39,8.32,28.39,0,26.76-20.43,42.13t-54.44,15.37q-15.54,0-35.44-5.06t-29.65-10.13V347.84H2567Z"/><path class="cls-1" d="M2751.75,376.05q4,6.17,16.64,10.85a77.15,77.15,0,0,0,27.12,4.71q44.13,0,44.13-32.56,0-14.82-12.3-24.05t-42-20.43q-29.29-10.49-42.68-25t-13.38-38.69a41.24,41.24,0,0,1,9.58-27.13q9.59-11.56,25.68-17.9a94.5,94.5,0,0,1,34.9-6.33q18.45,0,30.92,3.25a237.68,237.68,0,0,1,24.78,8v43h-17.72l-6.51-26.4q-2.53-4.69-12.84-8a74.78,74.78,0,0,0-22.61-3.25q-17.36,0-28.21,7.77t-10.85,20.8q0,11.58,5.43,19.17a41.4,41.4,0,0,0,13.38,12.11,197.9,197.9,0,0,0,22.06,10.31l6.87,2.89q20.63,8,33.28,15a64.5,64.5,0,0,1,21,18.45q8.32,11.39,8.32,28.39,0,26.76-20.43,42.13T2791.9,408.6q-15.55,0-35.45-5.06t-29.65-10.13V347.84h19.53Z"/><path class="cls-1" d="M2932.22,227.77,2904,221.62V205.35l49.55-5.79h.72l7.23,5.79V386.54l31.47,2.53v15.55h-92.59V389.07l31.83-2.89Zm-13-71.25,56.06-69.8,24.59,19.89q-7.23,10.85-32,32.37t-37.43,27.31Z"/><path class="cls-1" d="M3003.1,203.9h76.68v14.83l-26.77,4.7,38.7,107.41,17.72,51.36,15.19-49.55,38.7-109.22-25.31-4.7V203.9h69.07v14.83l-18.44,4.7-71.25,184.09h-24.23L3020.1,223.43l-17-4.7Z"/><path class="cls-1" d="M3246.68,379.85q-22.6-28.75-22.6-76.49,0-30.74,11.93-54.61t33.1-37.07q21.15-13.2,47.56-13.21,32.17,0,50.09,18.45t19.35,53.16q0,22.44-2.17,31.83H3255.18q0,38,17.18,62T3320.64,388a96,96,0,0,0,31.11-5.43q15.9-5.42,24.59-13l5.79,13.38q-10.5,10.86-30.56,18.27a115.73,115.73,0,0,1-40.33,7.41Q3269.29,408.6,3246.68,379.85Zm106.88-94.94a112.88,112.88,0,0,0,1.08-15.91q-.36-23.87-11.39-38t-33.82-14.1q-49.54,0-53.89,68Z"/><path class="cls-1" d="M3448.31,131.2,3417.57,128V114.57l52.8-6.15h.36l6.87,4.7V386.54l34,2.53v15.55h-95.12V389.07l31.83-2.89Z"/></g></g></svg>