<?xml version="1.0" encoding="utf-8"?>
<!-- Generator: Adobe Illustrator 24.0.1, SVG Export Plug-In . SVG Version: 6.00 Build 0)  -->
<svg version="1.1" id="Camada_1" xmlns="http://www.w3.org/2000/svg" xmlns:xlink="http://www.w3.org/1999/xlink" x="0px" y="0px"
	 viewBox="0 0 33.6 32" style="enable-background:new 0 0 33.6 32;" xml:space="preserve">
<style type="text/css">
	.st0{fill:none;}
	.st1{fill:#371E56;}
	.st2{fill:#2BC4C3;}
	.st3{fill:url(#SVGID_1_);}
</style>
<rect class="st0" width="215" height="32"/>
<g>
	<path class="st1" d="M28.2,10.8c1.1,0,2.1-0.3,3-0.9c0.9-0.6,1.6-1.4,2-2.4c0.4-1,0.5-2.1,0.3-3.1c-0.2-1-0.7-2-1.5-2.8
		c-0.8-0.8-1.7-1.3-2.8-1.5c-1.1-0.2-2.1-0.1-3.1,0.3c-1,0.4-1.8,1.1-2.4,2c-0.6,0.9-0.9,1.9-0.9,3c0,1.4,0.6,2.8,1.6,3.8
		C25.4,10.2,26.8,10.8,28.2,10.8z"/>
	<path class="st2" d="M22.6,26.7c-2.8,0-5.5-0.9-7.7-2.7c-2.2-1.7-3.7-4.2-4.3-6.9c-0.2-0.6-0.3-1.3-0.3-1.9V8
		c0-1.4-0.5-2.7-1.5-3.6c-1-1-2.3-1.5-3.6-1.5c-1.4,0-2.7,0.5-3.6,1.5C0.5,5.3,0,6.6,0,8v7c0,9.4,7.6,17,17,16.9
		c3-0.1,5.9-0.9,8.5-2.5c2.6-1.6,4.6-3.8,6-6.5c-1.1,1.2-2.5,2.2-4.1,2.9C25.9,26.4,24.2,26.7,22.6,26.7z"/>
	
		<linearGradient id="SVGID_1_" gradientUnits="userSpaceOnUse" x1="14.2973" y1="-1.1577" x2="23.2047" y2="18.763" gradientTransform="matrix(1 0 0 -1 0 34)">
		<stop  offset="0.29" style="stop-color:#0C9898"/>
		<stop  offset="1" style="stop-color:#2BC4C3"/>
	</linearGradient>
	<path class="st3" d="M33.4,15.1c0-0.4-0.2-0.8-0.4-1c-0.3-0.3-0.7-0.4-1-0.4h-7.4c-0.4,0-0.8,0.2-1,0.4s-0.4,0.7-0.4,1v0.2
		c0,1.5-0.5,3-1.5,4.1c-1,1.1-2.4,1.9-3.9,2.1c-1.5,0.2-3-0.1-4.3-0.9c-1.3-0.8-2.3-2-2.7-3.5c0.5,2.2,1.6,4.2,3.1,5.8
		c1.5,1.6,3.5,2.8,5.6,3.4s4.4,0.6,6.6,0s4.1-1.8,5.6-3.4c1.2-2.4,1.8-5,1.8-7.6V15.1z"/>
</g>
</svg>
